<svg width="37" height="38" viewBox="0 0 37 38" fill="none" xmlns="http://www.w3.org/2000/svg">
<path d="M32.375 27.9668C33.6016 27.9668 34.778 28.4541 35.6454 29.3214C36.5127 30.1888 37 31.3652 37 32.5918C37 33.8184 36.5127 34.9948 35.6454 35.8622C34.778 36.7295 33.6016 37.2168 32.375 37.2168H4.625C3.39837 37.2168 2.22198 36.7295 1.35463 35.8622C0.487274 34.9948 0 33.8184 0 32.5918C0 31.3652 0.487274 30.1888 1.35463 29.3214C2.22198 28.4541 3.39837 27.9668 4.625 27.9668L32.375 27.9668Z" fill="white"/>
<path d="M13.875 0.216797C15.1016 0.216797 16.278 0.704072 17.1454 1.57143C18.0127 2.43878 18.5 3.61517 18.5 4.8418C18.5 6.06842 18.0127 7.24481 17.1454 8.11217C16.278 8.97952 15.1016 9.4668 13.875 9.4668H4.625C3.39837 9.4668 2.22198 8.97952 1.35463 8.11217C0.487274 7.24481 0 6.06842 0 4.8418C0 3.61517 0.487274 2.43878 1.35463 1.57143C2.22198 0.704072 3.39837 0.216797 4.625 0.216797L13.875 0.216797Z" fill="white"/>
<path d="M23.125 14.0918C24.3516 14.0918 25.528 14.5791 26.3954 15.4464C27.2627 16.3138 27.75 17.4902 27.75 18.7168C27.75 19.9434 27.2627 21.1198 26.3954 21.9872C25.528 22.8545 24.3516 23.3418 23.125 23.3418H4.625C3.39837 23.3418 2.22198 22.8545 1.35463 21.9872C0.487274 21.1198 0 19.9434 0 18.7168C0 17.4902 0.487274 16.3138 1.35463 15.4464C2.22198 14.5791 3.39837 14.0918 4.625 14.0918L23.125 14.0918Z" fill="white"/>
</svg>
