<svg width="18" height="17" viewBox="0 0 18 17" fill="none" xmlns="http://www.w3.org/2000/svg">
<path d="M16.8267 2.32715H15.1164V3.3862H16.6955V15.0308H1.95846V3.3862H3.53757V2.32715H1.8272C1.70418 2.32923 1.58278 2.35567 1.46992 2.40495C1.35706 2.45422 1.25497 2.52538 1.16946 2.61434C1.08395 2.70331 1.0167 2.80835 0.971565 2.92345C0.926427 3.03856 0.90428 3.16148 0.906387 3.28519V15.1308C0.90428 15.2545 0.926427 15.3774 0.971565 15.4925C1.0167 15.6076 1.08395 15.7127 1.16946 15.8016C1.25497 15.8906 1.35706 15.9617 1.46992 16.011C1.58278 16.0603 1.70418 16.0867 1.8272 16.0888H16.8267C16.9497 16.0867 17.0711 16.0603 17.184 16.011C17.2969 15.9617 17.399 15.8906 17.4845 15.8016C17.57 15.7127 17.6372 15.6076 17.6824 15.4925C17.7275 15.3774 17.7496 15.2545 17.7475 15.1308V3.28519C17.7496 3.16148 17.7275 3.03856 17.6824 2.92345C17.6372 2.80835 17.57 2.70331 17.4845 2.61434C17.399 2.52538 17.2969 2.45422 17.184 2.40495C17.0711 2.35567 16.9497 2.32923 16.8267 2.32715Z" fill="#6E6B6B"/>
<path d="M4.06348 6.56152H5.11754V7.62057H4.06348V6.56152Z" fill="#6E6B6B"/>
<path d="M7.22168 6.56152H8.27475V7.62057H7.22168V6.56152Z" fill="#6E6B6B"/>
<path d="M10.3799 6.56152H11.4329V7.62057H10.3799V6.56152Z" fill="#6E6B6B"/>
<path d="M13.5371 6.56152H14.5902V7.62057H13.5371V6.56152Z" fill="#6E6B6B"/>
<path d="M4.06348 9.20898H5.11754V10.268H4.06348V9.20898Z" fill="#6E6B6B"/>
<path d="M7.22168 9.20898H8.27475V10.268H7.22168V9.20898Z" fill="#6E6B6B"/>
<path d="M10.3799 9.20898H11.4329V10.268H10.3799V9.20898Z" fill="#6E6B6B"/>
<path d="M13.5371 9.20898H14.5902V10.268H13.5371V9.20898Z" fill="#6E6B6B"/>
<path d="M4.06348 11.8555H5.11754V12.9145H4.06348V11.8555Z" fill="#6E6B6B"/>
<path d="M7.22168 11.8555H8.27475V12.9145H7.22168V11.8555Z" fill="#6E6B6B"/>
<path d="M10.3799 11.8555H11.4329V12.9145H10.3799V11.8555Z" fill="#6E6B6B"/>
<path d="M13.5371 11.8555H14.5902V12.9145H13.5371V11.8555Z" fill="#6E6B6B"/>
<path d="M5.11785 4.44466C5.25736 4.44466 5.39116 4.38893 5.48981 4.28972C5.58846 4.19051 5.64389 4.05595 5.64389 3.91564V0.739486C5.64389 0.599048 5.58841 0.46436 5.48967 0.365055C5.39093 0.26575 5.257 0.209961 5.11735 0.209961C4.97771 0.209961 4.84378 0.26575 4.74504 0.365055C4.64629 0.46436 4.59082 0.599048 4.59082 0.739486V3.91564C4.59082 3.9852 4.60446 4.05407 4.63096 4.11832C4.65746 4.18257 4.69629 4.24093 4.74524 4.29007C4.7942 4.33921 4.8523 4.37816 4.91624 4.40468C4.98018 4.43121 5.04869 4.4448 5.11785 4.44466Z" fill="#6E6B6B"/>
<path d="M13.5368 4.44466C13.6763 4.44466 13.8101 4.38893 13.9088 4.28972C14.0074 4.19051 14.0628 4.05595 14.0628 3.91564V0.739486C14.0628 0.599048 14.0074 0.46436 13.9086 0.365055C13.8099 0.26575 13.676 0.209961 13.5363 0.209961C13.3967 0.209961 13.2627 0.26575 13.164 0.365055C13.0652 0.46436 13.0098 0.599048 13.0098 0.739486V3.91564C13.0098 3.9852 13.0234 4.05407 13.0499 4.11832C13.0764 4.18257 13.1152 4.24093 13.1642 4.29007C13.2132 4.33921 13.2713 4.37816 13.3352 4.40468C13.3991 4.43121 13.4676 4.4448 13.5368 4.44466Z" fill="#6E6B6B"/>
<path d="M6.69531 2.32715H11.9587V3.3862H6.69531V2.32715Z" fill="#6E6B6B"/>
</svg>
