<svg width="25" height="26" viewBox="0 0 25 26" fill="none" xmlns="http://www.w3.org/2000/svg">
<path d="M12.873 6.74023C12.2057 6.74023 11.5534 6.93924 10.9985 7.31209C10.4437 7.68493 10.0112 8.21487 9.75586 8.83489C9.50049 9.45491 9.43367 10.1372 9.56385 10.7954C9.69404 11.4536 10.0154 12.0582 10.4873 12.5327C10.9591 13.0073 11.5603 13.3304 12.2148 13.4614C12.8693 13.5923 13.5477 13.5251 14.1642 13.2683C14.7807 13.0114 15.3077 12.5765 15.6784 12.0185C16.0491 11.4605 16.247 10.8045 16.247 10.1334C16.247 9.6878 16.1598 9.24657 15.9902 8.83489C15.8206 8.42321 15.5721 8.04915 15.2588 7.73407C14.9455 7.41898 14.5735 7.16905 14.1642 6.99852C13.7548 6.828 13.3161 6.74023 12.873 6.74023ZM12.873 12.1695C12.4726 12.1695 12.0812 12.0501 11.7482 11.8264C11.4153 11.6026 11.1558 11.2846 11.0025 10.9126C10.8493 10.5405 10.8092 10.1311 10.8873 9.73617C10.9654 9.34121 11.1583 8.97841 11.4414 8.69366C11.7246 8.40891 12.0853 8.21499 12.478 8.13642C12.8708 8.05786 13.2779 8.09818 13.6478 8.25229C14.0177 8.4064 14.3339 8.66737 14.5564 9.0022C14.7789 9.33704 14.8976 9.7307 14.8976 10.1334C14.8976 10.6734 14.6843 11.1913 14.3046 11.5731C13.9249 11.955 13.41 12.1695 12.873 12.1695Z" fill="white" stroke="white" stroke-width="0.4"/>
<path d="M12.8732 1.00195C10.5131 1.00195 8.20606 1.70577 6.24372 3.02442C4.28139 4.34306 2.75193 6.21729 1.84876 8.41011C0.9456 10.6029 0.709291 13.0158 1.16972 15.3437C1.63015 17.6716 2.76664 19.8099 4.43547 21.4882C6.1043 23.1665 8.23052 24.3095 10.5453 24.7725C12.86 25.2356 15.2593 24.9979 17.4397 24.0896C19.6201 23.1813 21.4838 21.6432 22.795 19.6697C24.1062 17.6962 24.806 15.376 24.806 13.0025C24.806 9.81978 23.5488 6.76739 21.311 4.51684C19.0732 2.2663 16.038 1.00195 12.8732 1.00195ZM7.75903 21.898V20.7179C7.75982 20.0362 8.02943 19.3827 8.50871 18.9007C8.988 18.4187 9.63782 18.1476 10.3156 18.1468H15.4298C16.1076 18.1476 16.7575 18.4187 17.2367 18.9007C17.716 19.3827 17.9856 20.0362 17.9864 20.7179V21.898C16.4344 22.8093 14.6694 23.2895 12.8722 23.2895C11.075 23.2895 9.31107 22.8093 7.75903 21.898ZM19.6849 20.6539C19.6679 19.5295 19.2124 18.4569 18.4165 17.6671C17.6206 16.8773 16.548 16.4337 15.4298 16.4317H10.3166C9.1985 16.4337 8.1259 16.8773 7.32998 17.6671C6.53406 18.4569 6.07854 19.5295 6.06159 20.6539C4.51564 19.266 3.42536 17.4385 2.93514 15.4136C2.44492 13.3886 2.57787 11.2617 3.3164 9.31439C4.05493 7.36712 5.3642 5.69138 7.07082 4.5091C8.77743 3.32681 10.8009 2.69375 12.8732 2.69375C14.9456 2.69375 16.969 3.32681 18.6756 4.5091C20.3823 5.69138 21.6915 7.36712 22.43 9.31439C23.1686 11.2617 23.3015 13.3886 22.8113 15.4136C22.3211 17.4385 21.2308 19.266 19.6849 20.6539Z" fill="white" stroke="white" stroke-width="0.4"/>
</svg>
